<svg width="50" height="40" viewBox="0 0 50 40" fill="none" xmlns="http://www.w3.org/2000/svg">
<g clip-path="url(#clip0)">
<path d="M40.2279 11.6154L25.7615 0.285866C25.4122 -0.0504897 24.7882 -0.0966585 24.3677 0.182686C24.321 0.213815 24.2777 0.248325 24.2388 0.285866L9.77241 11.6154C9.30985 11.9584 9.28245 12.5366 9.7112 12.9066C9.92383 13.0901 10.2211 13.1959 10.5339 13.1991H17.3863V27.8787C17.5163 28.4922 18.1366 28.9636 18.9091 29.0361H31.0914C31.7005 29.0361 31.8527 28.427 31.8527 27.8787V13.1991H39.4666C40.0973 13.1925 40.6019 12.7781 40.5936 12.2735C40.5895 12.0233 40.4573 11.7855 40.2279 11.6154Z" fill="#27AE60"/>
<path d="M31.091 30.8635H18.9087C18.278 30.8635 17.7666 31.2726 17.7666 31.7772C17.7666 32.2818 18.278 32.6909 18.9087 32.6909H31.091C31.7217 32.6909 32.2331 32.2818 32.2331 31.7772C32.2331 31.2726 31.7219 30.8635 31.091 30.8635Z" fill="#27AE60"/>
<path d="M31.091 34.5181H18.9087C18.278 34.5181 17.7666 34.9272 17.7666 35.4318C17.7666 35.9364 18.278 36.3455 18.9087 36.3455H31.091C31.7217 36.3455 32.2331 35.9364 32.2331 35.4318C32.2331 34.9272 31.7219 34.5181 31.091 34.5181Z" fill="#27AE60"/>
<path d="M31.091 38.1726H18.9087C18.278 38.1726 17.7666 38.5817 17.7666 39.0863C17.7666 39.5909 18.278 40 18.9087 40H31.091C31.7217 40 32.2331 39.5909 32.2331 39.0863C32.2331 38.5817 31.7219 38.1726 31.091 38.1726Z" fill="#27AE60"/>
</g>
<defs>
<clipPath id="clip0">
<rect width="50" height="40" fill="white"/>
</clipPath>
</defs>
</svg>
