<svg width="30" height="30" viewBox="0 0 30 30" fill="none" xmlns="http://www.w3.org/2000/svg">
<path d="M14.9999 0C8.75991 0 3.68359 5.07632 3.68359 11.3155C3.68359 20.2989 13.7857 29.3234 14.216 29.7039C14.441 29.9013 14.7204 30 14.9999 30C15.2904 30 15.581 29.8934 15.8075 29.6811C16.2362 29.28 26.3162 19.7589 26.3162 11.3163C26.3162 5.07711 21.2383 0 14.9999 0ZM14.9999 16.7116C12.0196 16.7116 9.60465 14.295 9.60465 11.3171C9.60465 8.33921 12.0196 5.92263 14.9999 5.92263C17.9786 5.92263 20.3936 8.33842 20.3936 11.3171C20.3936 14.2958 17.9786 16.7116 14.9999 16.7116Z" fill="#27AE60"/>
</svg>
