<svg width="100" height="90" viewBox="0 0 100 90" fill="none" xmlns="http://www.w3.org/2000/svg">
<path d="M26.8125 35.4154C25.9464 34.8328 25.0781 34.5415 24.2121 34.5415H20.3192V55.5288H24.2143C25.0804 55.5288 25.9487 55.2375 26.8147 54.6549C27.6808 54.0723 28.1138 53.1984 28.1138 52.0312V38.0391C28.1116 36.8739 27.6763 35.998 26.8125 35.4154ZM90.2009 0H9.79911C4.39732 0 0.0133929 3.93549 0 8.79911V81.2009C0.0133929 86.0645 4.39732 90 9.79911 90H90.2009C95.6049 90 99.9866 86.0645 100 81.2009V8.79911C99.9866 3.93549 95.6027 0 90.2009 0ZM34.4196 52.0694C34.4196 55.8482 31.8281 61.5737 23.625 61.5616H13.2679V28.3219H23.8438C31.7545 28.3219 34.4152 34.0393 34.4174 37.8201L34.4196 52.0694ZM56.8929 34.2583H45V41.9766H52.2701V47.917H45V55.6333H56.8951V61.5737H43.0156C40.5246 61.6319 38.4531 59.86 38.3906 57.6181V32.4844C38.3304 30.2444 40.3013 28.3841 42.7902 28.3279H56.8951L56.8929 34.2583ZM80.0268 57.4192C77.0804 63.5967 71.8013 62.3672 69.4375 57.4192L60.8371 28.3299H68.1071L74.7388 51.1754L81.3393 28.3299H88.6116L80.0268 57.4192Z" fill="#139249"/>
</svg>
