<svg width="100" height="90" viewBox="0 0 100 90" fill="none" xmlns="http://www.w3.org/2000/svg">
<path d="M76.5625 67.5C79.1469 67.5 81.25 65.6072 81.25 63.2812C81.25 60.9553 79.1469 59.0625 76.5625 59.0625C73.9781 59.0625 71.875 60.9553 71.875 63.2812C71.875 65.6072 73.9781 67.5 76.5625 67.5ZM76.5625 61.875C77.4234 61.875 78.125 62.505 78.125 63.2812C78.125 64.0575 77.4234 64.6875 76.5625 64.6875C75.7016 64.6875 75 64.0575 75 63.2812C75 62.505 75.7016 61.875 76.5625 61.875Z" fill="#139249"/>
<path d="M92.4375 57.3441C91.9641 56.3231 92.2156 55.163 93.0766 54.3867L95.35 52.3392L88.7188 46.3711L86.4422 48.4186C85.5813 49.1948 84.2906 49.4198 83.0969 48.9698C81.975 48.5536 81.25 47.5777 81.25 46.4836V43.5938H78.0453C77.9031 41.3255 77.4359 39.1331 76.6609 37.0561L94.7422 20.783C97.125 18.6384 98.4375 15.788 98.4375 12.7561C98.4375 6.49828 92.7797 1.40625 85.8266 1.40625C82.4578 1.40625 79.2906 2.5875 76.9094 4.73063L58.8469 20.9883C56.5109 20.2823 54.0344 19.8717 51.4766 19.7494C49.3203 16.3589 45.2687 14.0625 40.625 14.0625C39.4359 14.0625 38.2891 14.2228 37.1969 14.5027C34.5 9.93937 29.2609 7.03125 23.4375 7.03125C14.8219 7.03125 7.8125 13.3397 7.8125 21.0938C7.8125 22.1709 7.95937 23.2312 8.22656 24.2691C4.375 25.3181 1.5625 28.5398 1.5625 32.3438C1.5625 36.997 5.76719 40.7812 10.9375 40.7812H22.2719C22.0125 42.172 21.875 43.5839 21.875 45C21.875 48.0952 22.5109 50.6138 23.5375 52.7653L9.59844 65.3119L1.84219 83.4609C1.65625 83.8941 1.5625 84.3497 1.5625 84.8152C1.5625 86.8992 3.44688 88.5938 5.76094 88.5938C6.27813 88.5938 6.78438 88.508 7.26719 88.342L27.4328 81.3614L37.625 72.187C37.5484 72.4894 37.5 72.8016 37.5 73.125C37.5 74.2092 37.9703 75.1894 38.7188 75.9375C37.9688 76.6856 37.5 77.6658 37.5 78.75C37.5 80.7047 38.9922 82.3388 41 82.8141C42.3312 86.2453 45.8969 88.5938 50 88.5938C54.1031 88.5938 57.6687 86.2453 59 82.8141C61.0078 82.3388 62.5 80.7047 62.5 78.75C62.5 78.6445 62.4734 78.5461 62.4656 78.4434L64.4062 80.19L66.6828 78.1425C67.5437 77.3662 68.8297 77.1398 70.0266 77.5884C71.1484 78.0089 71.875 78.9848 71.875 80.0789V82.9688H81.25V80.0789C81.25 78.9848 81.9766 78.0075 83.1594 77.5673C84.2937 77.1427 85.5828 77.3662 86.4437 78.1425L88.7188 80.19L95.35 74.2219L93.0766 72.1744C92.2156 71.3981 91.9641 70.238 92.4625 69.1636C92.9266 68.1539 94.0109 67.5 95.2266 67.5H98.4375V59.0625H95.2266C94.0109 59.0625 92.9266 58.4086 92.4375 57.3441ZM69.025 61.4897C70.7297 59.992 72.4375 58.462 73.9109 56.693C74.7609 56.4145 75.6453 56.25 76.5625 56.25C80.8703 56.25 84.375 59.4042 84.375 63.2812C84.375 67.1583 80.8703 70.3125 76.5625 70.3125C72.2547 70.3125 68.75 67.1583 68.75 63.2812C68.75 62.6723 68.8547 62.0733 69.025 61.4897ZM70.9016 28.1784L78.125 21.6759L83.7281 26.7188L75.3828 34.2295C74.2125 32.0189 72.7 29.9855 70.9016 28.1784ZM72.5219 12.6562L75 10.4259L88.4156 22.5L85.9375 24.7303L72.5219 12.6562ZM85.8266 4.21875C91.0563 4.21875 95.3125 8.04938 95.3125 12.7561C95.3125 15.0356 94.3266 17.1802 92.5344 18.7931L90.625 20.5116L77.2094 8.4375L79.1188 6.71906C80.9109 5.1075 83.2922 4.21875 85.8266 4.21875ZM70.3125 14.6447L75.9156 19.6875L68.6953 26.1858C66.6891 24.5658 64.4313 23.2031 61.975 22.1484L70.3125 14.6447ZM75 45C75 52.3167 70.9062 55.9111 66.5719 59.715C63.5875 62.3348 60.5219 65.0433 58.7375 68.9906C58.4391 68.9358 58.1297 68.9062 57.8125 68.9062H51.5625V61.875C51.5625 59.5491 49.4594 57.6562 46.875 57.6562H43.75C42.8891 57.6562 42.1875 57.0262 42.1875 56.25C42.1875 55.4738 42.8891 54.8438 43.75 54.8438H59.375C61.9594 54.8438 64.0625 52.9509 64.0625 50.625C64.0625 48.2991 61.9594 46.4062 59.375 46.4062H46.875C46.0141 46.4062 45.3125 45.7762 45.3125 45V40.7812H53.125C57.4328 40.7812 60.9375 37.627 60.9375 33.75C60.9375 29.873 57.4328 26.7188 53.125 26.7188C53.0812 26.7188 53.0406 26.73 52.9969 26.73C53.0641 26.2603 53.125 25.7906 53.125 25.3125C53.125 24.3928 52.9875 23.5027 52.7562 22.6462C65.2125 23.895 75 33.5166 75 45ZM40.625 73.125C40.625 72.3487 41.3266 71.7188 42.1875 71.7188H57.8125C58.6734 71.7188 59.375 72.3487 59.375 73.125C59.375 73.9013 58.6734 74.5312 57.8125 74.5312H42.1875C41.3266 74.5312 40.625 73.9013 40.625 73.125ZM20.9594 73.125L32.4453 62.7877C34.3672 64.5033 36.1516 66.2386 37.4672 68.3522L26.5625 78.1678L20.9594 73.125ZM4.6875 32.3438C4.6875 29.2416 7.49062 26.7188 10.9375 26.7188C14.3844 26.7188 17.1875 29.2416 17.1875 32.3438H20.3125C20.3125 27.8128 16.3203 24.1144 11.3375 23.9245C11.0719 23.0048 10.9375 22.0556 10.9375 21.0938C10.9375 14.8908 16.5453 9.84375 23.4375 9.84375C28.0078 9.84375 32.1328 12.0797 34.3266 15.6108C30.9953 17.37 28.6422 20.468 28.2031 24.0834C25.475 24.6881 23.4375 26.8917 23.4375 29.5312H26.5625C26.5625 27.9802 27.9641 26.7188 29.6875 26.7188C31.4109 26.7188 32.8125 27.9802 32.8125 29.5312H35.9375C35.9375 26.9508 33.9875 24.795 31.3516 24.1341C31.9922 20.0391 35.9 16.875 40.625 16.875C45.7953 16.875 50 20.6592 50 25.3125C50 26.0522 49.8656 26.7764 49.6562 27.4823C47.0938 28.6369 45.3125 30.9994 45.3125 33.75H48.4375C48.4375 31.4241 50.5406 29.5312 53.125 29.5312C55.7094 29.5312 57.8125 31.4241 57.8125 33.75C57.8125 36.0759 55.7094 37.9688 53.125 37.9688H10.9375C7.49062 37.9688 4.6875 35.4459 4.6875 32.3438ZM42.1875 40.7812V45C42.1875 47.3259 44.2906 49.2188 46.875 49.2188H59.375C60.2359 49.2188 60.9375 49.8488 60.9375 50.625C60.9375 51.4012 60.2359 52.0312 59.375 52.0312H43.75C41.1656 52.0312 39.0625 53.9241 39.0625 56.25C39.0625 58.5759 41.1656 60.4688 43.75 60.4688H46.875C47.7359 60.4688 48.4375 61.0988 48.4375 61.875V68.9062H42.1875C41.8703 68.9062 41.5609 68.9358 41.2625 68.9906C39.4781 65.0433 36.4125 62.3348 33.4281 59.715C29.0937 55.9111 25 52.3167 25 45C25 43.5783 25.1891 42.1692 25.4813 40.7812H42.1875ZM30.2141 60.8189L18.75 71.1366L13.1469 66.0938L25.0688 55.3641C26.5359 57.4369 28.3547 59.1666 30.2141 60.8189ZM11.5328 68.618L23.7578 79.6205L13.4078 83.2036L7.55156 77.933L11.5328 68.618ZM6.14687 85.7166C5.47031 85.9528 4.6875 85.4677 4.6875 84.8152C4.6875 84.6956 4.7125 84.5789 4.75781 84.4692L6.32344 80.8045L10.2156 84.3075L6.14687 85.7166ZM50 85.7812C47.6922 85.7812 45.6344 84.6759 44.4938 82.9688H55.5062C54.3656 84.6759 52.3078 85.7812 50 85.7812ZM57.8125 80.1562H42.1875C41.3266 80.1562 40.625 79.5263 40.625 78.75C40.625 77.9737 41.3266 77.3438 42.1875 77.3438H57.8125C58.6734 77.3438 59.375 77.9737 59.375 78.75C59.375 79.5263 58.6734 80.1562 57.8125 80.1562ZM95.3125 64.6875H95.2266C92.7406 64.6875 90.5219 66.0234 89.5531 68.1356C88.5906 70.2127 89.1062 72.578 90.8656 74.1628L90.9313 74.2219L88.7188 76.2131L88.6531 76.1541C86.8906 74.5678 84.2594 74.1023 81.9047 74.9911C79.6094 75.8461 78.125 77.8416 78.125 80.0789V80.1562H75V80.0789C75 77.8416 73.5156 75.8447 71.1687 74.9714C68.8578 74.1038 66.2297 74.5692 64.4703 76.1541L64.4047 76.2131L62.2875 74.3077C62.4125 73.9294 62.5 73.5384 62.5 73.125C62.5 72.1266 62.0969 71.2209 61.45 70.4967C62.4219 68.1356 63.9453 66.247 65.7188 64.5033C66.3906 69.3548 70.9922 73.125 76.5625 73.125C82.5938 73.125 87.5 68.708 87.5 63.2812C87.5 57.8545 82.5938 53.4375 76.5625 53.4375C76.4094 53.4375 76.2609 53.4516 76.1094 53.4572C77.1672 51.4814 77.8938 49.1906 78.0766 46.4062H78.125V46.4836C78.125 48.7209 79.6094 50.7192 81.9547 51.5897C84.2609 52.4588 86.8922 51.9947 88.6531 50.4084L88.7188 50.3494L90.9313 52.3406L90.8656 52.3997C89.1062 53.9845 88.5906 56.3513 89.5734 58.4719C90.5219 60.5391 92.7406 61.875 95.2266 61.875H95.3125V64.6875Z" fill="#139249"/>
</svg>
