<svg width="30" height="30" viewBox="0 0 30 30" fill="none" xmlns="http://www.w3.org/2000/svg">
<g clip-path="url(#clip0)">
<path d="M15.5361 29.9822C17.8302 29.6563 19.8413 27.2619 21.1068 23.7259C19.2774 23.3162 17.4106 23.0962 15.5361 23.0701V29.9822Z" fill="#27AE60"/>
<path d="M19.2011 29.4199C19.3367 29.3807 19.4718 29.3411 19.6058 29.2977C19.7189 29.2613 19.8305 29.222 19.942 29.183C20.0739 29.1375 20.2053 29.0906 20.3362 29.0408C20.4478 28.9984 20.5582 28.9534 20.669 28.9084C20.7967 28.8547 20.9242 28.8013 21.0504 28.7476C21.1606 28.6992 21.2701 28.6484 21.3795 28.5974C21.5033 28.539 21.6266 28.4796 21.7489 28.4178C21.8562 28.3631 21.9633 28.3073 22.0706 28.25C22.1908 28.1856 22.3102 28.1199 22.4288 28.0523C22.5361 27.9916 22.6395 27.9306 22.744 27.8677C22.8602 27.7963 22.9759 27.7248 23.0908 27.6533C23.1937 27.5879 23.2963 27.5214 23.3977 27.4528C23.5108 27.3766 23.6223 27.2973 23.7333 27.218C23.833 27.1465 23.9322 27.0753 24.0296 27.0036C24.137 26.9208 24.2469 26.8352 24.3545 26.7494C24.4501 26.6732 24.5454 26.5975 24.6394 26.5192C24.7464 26.4302 24.849 26.3381 24.953 26.2459C25.0441 26.165 25.1357 26.0849 25.2247 26.0019C25.3271 25.9064 25.4268 25.8074 25.5266 25.7093C25.613 25.6239 25.7004 25.5399 25.785 25.4524C25.8007 25.4362 25.8156 25.4187 25.8318 25.4019C24.6624 24.7979 23.4306 24.3238 22.1581 23.9882C21.4963 26.0988 20.3184 28.0115 18.7314 29.5524C18.7749 29.5411 18.8184 29.532 18.8618 29.5207C18.9765 29.4885 19.0891 29.4532 19.2011 29.4199Z" fill="#27AE60"/>
<path d="M29.9999 15.5485H23.5713C23.5469 18.0585 23.1828 20.5537 22.4888 22.9662C23.904 23.3442 25.2698 23.8877 26.5578 24.5854C28.6726 22.0365 29.8831 18.8586 29.9999 15.5485Z" fill="#27AE60"/>
<path d="M15.5361 14.4762H22.4991C22.4718 12.0549 22.1166 9.64849 21.4435 7.32245C19.5047 7.76462 17.5245 8.00076 15.5361 8.02694V14.4762Z" fill="#27AE60"/>
<path d="M15.5361 0.0423584V6.95451C17.4106 6.92807 19.2774 6.70843 21.1068 6.29872C19.8413 2.76266 17.8302 0.368292 15.5361 0.0423584Z" fill="#27AE60"/>
<path d="M15.5361 21.9978C17.5245 22.0242 19.5047 22.2603 21.4435 22.7025C22.1166 20.3765 22.4718 17.9698 22.4991 15.5485H15.5361V21.9978Z" fill="#27AE60"/>
<path d="M26.5578 5.43927C25.2698 6.13695 23.904 6.68044 22.4888 7.05847C23.1828 9.4709 23.5469 11.9661 23.5713 14.4761H29.9999C29.8829 11.1663 28.6724 7.98836 26.5578 5.43927Z" fill="#27AE60"/>
<path d="M25.8336 4.62586C25.8179 4.60989 25.803 4.59261 25.7875 4.57612C25.7027 4.48868 25.6147 4.40438 25.5283 4.3193C25.4289 4.22113 25.3296 4.12191 25.227 4.02662C25.1383 3.94389 25.0464 3.86561 24.9553 3.78315C24.8513 3.691 24.7474 3.59806 24.6406 3.50905C24.5479 3.43077 24.4529 3.3559 24.3586 3.28076C24.2513 3.19385 24.1413 3.10746 24.0309 3.02447C23.934 2.95143 23.8358 2.88074 23.7371 2.81006C23.6251 2.72942 23.5125 2.64905 23.3984 2.57235C23.2981 2.50481 23.1963 2.43883 23.0944 2.37417C22.9785 2.29956 22.8627 2.22652 22.7447 2.15583C22.6413 2.09379 22.5368 2.03253 22.4321 1.9731C22.3122 1.90451 22.192 1.83801 22.0708 1.77309C21.9635 1.71942 21.8564 1.66104 21.7491 1.60737C21.6258 1.54507 21.5014 1.48512 21.3739 1.42621C21.2666 1.37516 21.1577 1.32542 21.0472 1.27699C20.9202 1.2207 20.7919 1.16992 20.6639 1.11625C20.5535 1.07122 20.4435 1.02671 20.332 0.984304C20.2019 0.934563 20.0699 0.887963 19.938 0.842411C19.8264 0.803142 19.7149 0.764135 19.6018 0.727483C19.4678 0.684026 19.3337 0.644495 19.196 0.604702C19.0845 0.571978 18.9725 0.53873 18.8596 0.508885C18.8164 0.497105 18.7725 0.487942 18.729 0.476685C20.316 2.01761 21.4936 3.93001 22.1556 6.04086C23.4295 5.70524 24.6631 5.23087 25.8336 4.62586Z" fill="#27AE60"/>
<path d="M0 14.4761H6.42862C6.45297 11.9661 6.81712 9.4709 7.51088 7.05847C6.09588 6.6807 4.7301 6.13721 3.44207 5.43927C1.3273 7.9881 0.11676 11.1663 0 14.4761Z" fill="#27AE60"/>
<path d="M14.4638 29.9822V23.0701C12.5893 23.0965 10.7225 23.3162 8.89307 23.7259C10.1583 27.2619 12.1697 29.6563 14.4638 29.9822Z" fill="#27AE60"/>
<path d="M14.4639 15.5485H7.50098C7.5282 17.9698 7.8832 20.3765 8.55653 22.7025C10.4954 22.2601 12.4753 22.0239 14.4639 21.9978V15.5485Z" fill="#27AE60"/>
<path d="M14.4638 0.0423584C12.1697 0.368292 10.1583 2.76266 8.89307 6.29872C10.7225 6.70869 12.5893 6.92833 14.4638 6.95451V0.0423584Z" fill="#27AE60"/>
<path d="M14.4639 8.02694C12.4756 8.00076 10.4954 7.76462 8.55653 7.32245C7.8832 9.64849 7.5282 12.0549 7.50098 14.4762H14.4639V8.02694Z" fill="#27AE60"/>
<path d="M11.2668 0.476196C11.2233 0.487453 11.1799 0.496616 11.1364 0.507873C11.0228 0.538242 10.9107 0.572013 10.7977 0.604737C10.6631 0.644006 10.5296 0.683537 10.3945 0.726472C10.2806 0.763385 10.1686 0.802654 10.0565 0.841661C9.92535 0.887999 9.79393 0.934074 9.66408 0.983292C9.55203 1.02623 9.44156 1.07073 9.33056 1.11628C9.20306 1.16995 9.07531 1.22362 8.94938 1.27702C8.83891 1.32546 8.72974 1.37624 8.62031 1.42729C8.49648 1.48567 8.37317 1.5451 8.25092 1.60689C8.14358 1.6616 8.03624 1.71762 7.92917 1.7747C7.80901 1.8391 7.68989 1.90507 7.57156 1.97261C7.46422 2.03256 7.35872 2.09408 7.25531 2.15692C7.13881 2.22708 7.02362 2.29959 6.90896 2.37132C6.80581 2.4373 6.70345 2.50379 6.60213 2.57238C6.48904 2.64857 6.37751 2.72789 6.26651 2.80721C6.16677 2.87868 6.06755 2.94989 5.9699 3.02188C5.86021 3.10435 5.75549 3.19022 5.64501 3.27582C5.54972 3.35201 5.45364 3.42766 5.36044 3.50646C5.25311 3.59495 5.15127 3.68658 5.04786 3.77821C4.95623 3.85989 4.86382 3.93921 4.77428 4.02377C4.67245 4.1188 4.57323 4.2175 4.47374 4.31541C4.38735 4.40075 4.29939 4.48505 4.21457 4.57275C4.19912 4.58898 4.1842 4.60679 4.16797 4.62328C5.33714 5.2275 6.56915 5.70161 7.84173 6.03723C8.50355 3.92769 9.68058 2.01633 11.2668 0.476196Z" fill="#27AE60"/>
<path d="M4.4717 25.7053C4.57144 25.8034 4.67066 25.9026 4.77303 25.9982C4.86204 26.0807 4.95366 26.1589 5.04503 26.2414C5.14896 26.3338 5.25289 26.4265 5.35971 26.5155C5.45238 26.5933 5.54689 26.6684 5.64166 26.7438C5.74899 26.8307 5.85607 26.9171 5.96969 27.0006C6.06629 27.0731 6.16446 27.1433 6.26263 27.2153C6.37468 27.2957 6.48778 27.376 6.60192 27.4533C6.70219 27.5208 6.80403 27.5868 6.90586 27.6517C7.02184 27.726 7.13755 27.7991 7.25562 27.8698C7.35903 27.9321 7.46349 27.9931 7.5682 28.0528C7.6881 28.1214 7.80827 28.1878 7.92948 28.2525C8.03655 28.3062 8.14389 28.3646 8.25122 28.4182C8.37453 28.4805 8.49888 28.5405 8.62638 28.5997C8.73371 28.6502 8.84262 28.6999 8.95309 28.7486C9.08006 28.8049 9.20808 28.8557 9.33636 28.9094C9.44684 28.9544 9.55679 28.9989 9.66832 29.0413C9.79843 29.0913 9.93037 29.1379 10.0623 29.1835C10.1738 29.2225 10.2854 29.2617 10.3985 29.2981C10.5325 29.3416 10.6665 29.3814 10.8042 29.4209C10.9158 29.4536 11.0278 29.4869 11.1404 29.517C11.1838 29.5288 11.2278 29.5379 11.2713 29.5492C9.68429 28.008 8.50674 26.0956 7.84466 23.9847C6.57208 24.3206 5.34007 24.7947 4.1709 25.3992C4.18661 25.4152 4.20153 25.4325 4.21724 25.449C4.29761 25.5359 4.38426 25.6202 4.4717 25.7053Z" fill="#27AE60"/>
<path d="M3.44207 24.5854C4.7301 23.8877 6.09588 23.3442 7.51088 22.9662C6.81712 20.5537 6.45297 18.0585 6.42862 15.5485H0C0.117022 18.8583 1.3273 22.0363 3.44207 24.5854Z" fill="#27AE60"/>
</g>
<defs>
<clipPath id="clip0">
<rect width="30" height="30" fill="white"/>
</clipPath>
</defs>
</svg>
